#!OML:ASF H:\GeneralSubjects\Female5\Project 1\Capture day 1\Session 1\Female5.ASF
:FULLY-SPECIFIED
:DEGREES
306
root -12.4499 16.0976 1.90215 -161.669 54.3628 -178.492
lowerback 8.43258 2.45392 1.36302
upperback -9.01513 4.22655 2.10122
thorax -14.8047 2.14849 0.644556
lowerneck -17.8154 -8.01144 -6.33067
upperneck 28.2979 -9.06322 0.788362
head 12.726 -4.32286 -0.0545638
rclavicle 8.49804e-015 -3.33958e-014
rhumerus -51.0847 42.5861 -102.77
rradius 44.2244
rwrist 5.59204
rhand -27.0465 -13.6078
rfingers 7.12502
rthumb -0.464976 -43.587
lclavicle 8.49804e-015 -3.33958e-014
lhumerus -61.5686 8.91537 70.3034
lradius 34.0494
lwrist -5.86942
lhand -27.832 32.171
lfingers 7.12502
lthumb -1.22369 62.1472
rfemur -12.3947 -2.36856 32.4857
rtibia 8.27148
rfoot -38.2551 -24.0632
rtoes 3.3501
lfemur -35.249 -35.649 -13.7991
ltibia 24.1619
lfoot 2.51925 -10.3622
ltoes -20.047
307
root -12.4912 16.0441 1.91896 -161.392 55.024 -179.039
lowerback 8.65381 2.53669 1.3682
upperback -8.98045 4.30138 1.87686
thorax -14.8829 2.15798 0.367602
lowerneck -18.36 -8.15362 -6.52165
upperneck 28.0457 -9.33782 1.19548
head 12.7813 -4.42159 0.0607398
rclavicle -8.17005e-014 -4.85035e-014
rhumerus -50.4091 42.0748 -102.101
rradius 44.5772
rwrist 5.33617
rhand -27.3511 -13.5979
rfingers 7.12502
rthumb -0.759156 -43.5762
lclavicle -8.17005e-014 -4.85035e-014
lhumerus -61.5973 8.78321 70.153
lradius 35.0656
lwrist -6.28855
lhand -26.6564 32.9188
lfingers 7.12502
lthumb -0.0882497 62.8985
rfemur -14.9828 -3.36025 32.1538
rtibia 11.2605
rfoot -37.4866 -22.8621
rtoes 0.806941
lfemur -37.3081 -35.2391 -13.5972
ltibia 26.1211
lfoot 1.91821 -11.1806
ltoes -19.6061
308
root -12.5339 15.9828 1.9347 -161.137 55.7038 -179.496
lowerback 8.97084 2.5499 1.19621
upperback -8.93797 4.28448 1.84905
thorax -15.0446 2.15779 0.421481
lowerneck -18.5515 -8.21214 -6.58215
upperneck 27.4389 -9.4883 1.39823
head 12.5963 -4.49097 0.119181
rclavicle -1.06847e-014 2.06736e-014
rhumerus -49.9149 41.8196 -101.4
rradius 45.0583
rwrist 4.83476
rhand -27.4377 -13.6658
rfingers 7.12502
rthumb -0.842855 -43.6439
lclavicle -1.06847e-014 2.06736e-014
lhumerus -61.8326 8.81371 70.2584
lradius 36.222
lwrist -5.86275
lhand -26.843 32.8857
lfingers 7.12502
lthumb -0.268469 62.8653
rfemur -17.4639 -3.94244 31.9019
rtibia 14.1894
rfoot -37.0552 -21.8479
rtoes -0.962326
lfemur -39.2404 -34.7299 -13.4553
ltibia 28.1324
lfoot 1.31072 -11.9177
ltoes -18.8817
309
root -12.5787 15.9127 1.95186 -161.011 56.5479 -179.955
lowerback 9.47572 2.58463 1.06484
upperback -8.85751 4.29301 1.77946
thorax -15.2743 2.15711 0.392517
lowerneck -18.6085 -8.22708 -6.69701
upperneck 26.7153 -9.62653 1.81362
head 12.3556 -4.5349 0.274582
rclavicle -1.23147e-013 -9.22361e-014
rhumerus -49.6014 41.6421 -100.917
rradius 45.7174
rwrist 4.12269
rhand -27.8668 -14.1665
rfingers 7.12502
rthumb -1.25722 -44.1425
lclavicle -1.23147e-013 -9.22361e-014
lhumerus -61.9069 8.44722 70.8014
lradius 37.575
lwrist -4.54627
lhand -27.6275 32.9117
lfingers 7.12502
lthumb -1.0261 62.889
rfemur -19.8792 -4.13854 31.6379
rtibia 17.2105
rfoot -36.9466 -20.8528
rtoes -2.43607
lfemur -41.0773 -34.1381 -13.4407
ltibia 30.3507
lfoot 0.64487 -12.7439
ltoes -18.2304
310
root -12.629 15.8311 1.97122 -160.951 57.6852 -180.418
lowerback 10.087 2.63429 0.784135
upperback -8.71973 4.30458 1.80856
thorax -15.5245 2.17918 0.552307
lowerneck -19.0804 -8.2188 -6.48985
upperneck 26.3571 -9.63059 1.6543
head 12.2847 -4.55072 0.166006
rclavicle 1.20265e-014 -3.97569e-014
rhumerus -49.2809 41.4988 -100.32
rradius 46.4806
rwrist 3.78548
rhand -28.3956 -14.5941
rfingers 7.12502
rthumb -1.76802 -44.5665
lclavicle 1.20265e-014 -3.97569e-014
lhumerus -61.9497 7.99951 71.6609
lradius 39.1586
lwrist -2.93722
lhand -28.9488 33.4579
lfingers 7.12502
lthumb -2.30229 63.4252
rfemur -22.3414 -3.88364 31.3463
rtibia 20.3523
rfoot -36.9641 -19.9779
rtoes -3.92076
lfemur -42.9519 -33.3917 -13.4999
ltibia 32.8661
lfoot -0.298684 -13.6129
ltoes -18.4564
311
root -12.6803 15.7379 1.98795 -160.718 58.9651 -180.637
lowerback 10.7708 2.71277 0.635407
upperback -8.62165 4.38768 1.86469
thorax -15.8652 2.22307 0.646834
lowerneck -19.624 -8.25608 -5.95536
upperneck 26.1546 -9.65066 0.994848
head 12.2399 -4.60339 -0.186311
rclavicle -5.17834e-014 -4.53229e-014
rhumerus -49.0253 41.04 -99.6368
rradius 47.2655
rwrist 3.59667
rhand -28.8446 -14.8322
rfingers 7.12502
rthumb -2.20167 -44.8005
lclavicle -5.17834e-014 -4.53229e-014
lhumerus -61.9549 7.34268 72.6498
lradius 40.7895
lwrist -1.61773
lhand -30.2158 33.8491
lfingers 7.12502
lthumb -3.5259 63.7997
rfemur -24.72 -3.42187 31.2139
rtibia 23.3498
rfoot -36.9496 -19.2006
rtoes -5.01089
lfemur -44.9013 -32.5331 -13.4742
ltibia 35.6733
lfoot -1.57746 -14.5887
ltoes -19.3579
312
root -12.7219 15.6314 1.98838 -160.776 60.1285 -180.969
lowerback 11.5648 2.7339 0.84216
upperback -8.51649 4.43148 1.76248
thorax -16.2234 2.19332 0.368653
lowerneck -19.906 -8.45637 -6.52001
upperneck 25.9419 -9.93109 1.59666
head 12.2957 -4.71067 0.0659497
rclavicle -3.81667e-014 -8.74653e-015
rhumerus -48.9633 40.5345 -99.1805
rradius 48.0357
rwrist 3.05854
rhand -29.2537 -14.9707
rfingers 7.12502
rthumb -2.59677 -44.9346
lclavicle -3.81667e-014 -8.74653e-015
lhumerus -61.6673 6.44423 73.6052
lradius 42.2776
lwrist -0.670808
lhand -30.9661 34.0379
lfingers 7.12502
lthumb -4.25038 63.9753
rfemur -26.5703 -3.39662 31.0552
rtibia 25.8682
rfoot -36.763 -18.5262
rtoes -6.60815
lfemur -46.5432 -32.0271 -13.7074
ltibia 38.5394
lfoot -2.80766 -15.7671
ltoes -19.4385
313
root -12.7666 15.5122 1.98386 -161.135 61.4685 -181.529
lowerback 12.5125 2.72434 0.949766
upperback -8.39374 4.42154 1.6875
thorax -16.6706 2.14806 0.181586
lowerneck -20.3302 -8.58663 -6.49377
upperneck 25.7165 -10.1285 1.62838
head 12.2989 -4.79895 0.0232762
rclavicle 9.34288e-015 3.33958e-014
rhumerus -48.778 40.0143 -98.5102
rradius 48.6939
rwrist 2.79111
rhand -29.2715 -14.7815
rfingers 7.12502
rthumb -2.61395 -44.7453
lclavicle 9.34288e-015 3.33958e-014
lhumerus -61.3294 5.42889 74.7843
lradius 43.9712
lwrist -0.338246
lhand -30.7099 34.0203
lfingers 7.12502
lthumb -4.00299 63.9625
rfemur -28.2256 -3.24241 30.7399
rtibia 28.1235
rfoot -36.5255 -18.0237
rtoes -8.44502
lfemur -48.0064 -31.5626 -14.151
ltibia 41.3891
lfoot -4.06308 -17.0526
ltoes -18.8228
314
root -12.8293 15.3832 1.98307 -161.015 63.2405 -181.574
lowerback 13.5735 2.78406 0.986689
upperback -8.27095 4.52907 1.79025
thorax -17.2187 2.17842 0.197123
lowerneck -20.4619 -8.60566 -6.66731
upperneck 25.0213 -10.1319 1.72108
head 12.0684 -4.82736 0.0887026
rclavicle 1.05356e-014 -1.74931e-014
rhumerus -48.4432 39.3446 -97.5532
rradius 49.2897
rwrist 2.67099
rhand -29.1136 -14.3713
rfingers 7.12502
rthumb -2.46143 -44.3368
lclavicle 1.05356e-014 -1.74931e-014
lhumerus -61.2098 4.1971 76.3248
lradius 46.3208
lwrist -0.693023
lhand -29.2747 33.3636
lfingers 7.12502
lthumb -2.61704 63.3273
rfemur -30.1838 -2.38456 30.6256
rtibia 30.6057
rfoot -36.3217 -17.5497
rtoes -9.77255
lfemur -49.5475 -30.6599 -14.3003
ltibia 44.2582
lfoot -5.507 -18.2346
ltoes -18.6985
315
root -12.8946 15.242 1.96955 -160.345 65.2045 -181.033
lowerback 14.5553 2.82798 1.34607
upperback -8.17003 4.69279 1.89378
thorax -17.7176 2.19821 0.0191907
lowerneck -20.7887 -8.41201 -6.74432
upperneck 24.4993 -9.95382 2.15848
head 11.9514 -4.71079 0.286903
rclavicle 6.87795e-014 -1.59028e-015
rhumerus -48.1081 38.2635 -96.6062
rradius 49.8321
rwrist 2.56904
rhand -29.1206 -14.1606
rfingers 7.12502
rthumb -2.46814 -44.1261
lclavicle 6.87795e-014 -1.59028e-015
lhumerus -61.1186 2.96339 77.778
lradius 48.9837
lwrist -1.25059
lhand -28.8717 32.6707
lfingers 7.12502
lthumb -2.22775 62.6388
rfemur -32.2626 -1.42342 30.7608
rtibia 33.261
rfoot -36.1241 -16.8183
rtoes -10.6247
lfemur -51.0548 -29.5758 -14.2709
ltibia 47.1133
lfoot -6.98927 -19.5089
ltoes -18.5864
316
root -12.9467 15.0994 1.94259 -159.467 67.3538 -180.29
lowerback 15.4756 2.83273 1.66661
upperback -8.13752 4.82244 2.06004
thorax -18.2744 2.2133 -0.055411
lowerneck -20.9156 -8.36621 -7.43886
upperneck 23.8216 -9.78385 2.61023
head 11.7753 -4.65766 0.593138
rclavicle 1.72943e-014 -4.13472e-014
rhumerus -47.9241 37.113 -95.6512
rradius 50.2739
rwrist 2.28858
rhand -29.3749 -14.2435
rfingers 7.12502
rthumb -2.71377 -44.2059
lclavicle 1.72943e-014 -4.13472e-014
lhumerus -58.8272 2.84269 78.5246
lradius 47.7261
lwrist -3.10452
lhand -30.1105 29.501
lfingers 7.12502
lthumb -3.42413 59.4533
rfemur -34.2445 -0.491464 30.9204
rtibia 35.8642
rfoot -35.9384 -15.62
rtoes -10.51
lfemur -52.3119 -28.3462 -14.3531
ltibia 49.7759
lfoot -8.68787 -20.8711
ltoes -18.2945
317
root -12.9793 14.9547 1.91169 -158.771 69.5325 -179.843
lowerback 16.051 2.79144 1.71119
upperback -8.10893 4.82143 2.23757
thorax -18.6352 2.21145 0.0967857
lowerneck -21.5305 -8.18686 -7.0085
upperneck 23.5858 -9.55123 2.27558
head 11.7437 -4.56114 0.423918
rclavicle 1.39149e-014 -1.90833e-014
rhumerus -47.7016 36.0646 -94.5903
rradius 50.6106
rwrist 1.61139
rhand -29.8599 -14.6188
rfingers 7.12502
rthumb -3.18214 -44.5748
lclavicle 1.39149e-014 -1.90833e-014
lhumerus -57.0189 1.54802 80.432
lradius 48.5061
lwrist -3.52216
lhand -30.9596 32.6092
lfingers 7.12502
lthumb -4.24409 62.5467
rfemur -36.223 0.434561 30.9047
rtibia 38.3836
rfoot -35.6342 -14.4961
rtoes -10.0006
lfemur -53.4326 -27.0815 -14.6353
ltibia 52.1837
lfoot -10.3337 -21.9605
ltoes -18.0117
318
root -13.0076 14.8108 1.8791 -158.266 71.9901 -179.596
lowerback 16.4935 2.76332 1.55242
upperback -8.06292 4.76515 2.33137
thorax -18.8934 2.2042 0.292483
lowerneck -22.0526 -7.99337 -6.70807
upperneck 23.2584 -9.32345 2.15294
head 11.6809 -4.45326 0.357165
rclavicle 1.53064e-014 -1.90833e-014
rhumerus -47.3141 34.7815 -93.3462
rradius 51.0046
rwrist 1.17546
rhand -29.9488 -15.0214
rfingers 7.12502
rthumb -3.26802 -44.9761
lclavicle 1.53064e-014 -1.90833e-014
lhumerus -55.1455 -0.11611 82.1193
lradius 49.6648
lwrist -4.1443
lhand -30.6873 33.1491
lfingers 7.12502
lthumb -3.9812 63.0916
rfemur -38.3383 1.52419 30.7141
rtibia 41.0626
rfoot -35.201 -13.5623
rtoes -9.75788
lfemur -54.3327 -25.5006 -15.2835
ltibia 54.361
lfoot -11.6263 -22.6376
ltoes -17.1762
319
root -13.0368 14.6812 1.84525 -157.615 74.7091 -179.092
lowerback 17.0816 2.70008 1.22873
upperback -8.05317 4.63211 2.46269
thorax -19.3137 2.18618 0.644915
lowerneck -22.2711 -7.88864 -6.8714
upperneck 22.8259 -9.22508 2.5562
head 11.5835 -4.3789 0.54475
rclavicle 1.33186e-014 -4.77083e-015
rhumerus -47.0648 33.5363 -92.0246
rradius 51.7621
rwrist 1.13761
rhand -29.0506 -14.9869
rfingers 7.12502
rthumb -2.4006 -44.9532
lclavicle 1.33186e-014 -4.77083e-015
lhumerus -53.0866 -1.75693 83.5201
lradius 50.9008
lwrist -4.58293
lhand -30.8098 31.2592
lfingers 7.12502
lthumb -4.09945 61.1995
rfemur -40.2086 2.8692 30.4944
rtibia 43.4914
rfoot -34.7467 -12.6085
rtoes -10.0465
lfemur -54.9342 -23.559 -16.1396
ltibia 56.3805
lfoot -12.8043 -23.0915
ltoes -15.9046
320
root -13.0595 14.5628 1.80174 -156.327 77.5249 -177.907
lowerback 17.5376 2.54301 0.963327
upperback -8.06646 4.38213 2.60423
thorax -19.6683 2.11636 1.02712
lowerneck -22.3907 -7.7819 -6.93109
upperneck 22.327 -9.15906 2.94961
head 11.4375 -4.31277 0.710624
rclavicle -4.31363e-014 -5.56597e-014
rhumerus -47.0276 32.5774 -90.8029
rradius 52.8479
rwrist 1.51463
rhand -27.9414 -14.7222
rfingers 7.12502
rthumb -1.32934 -44.6978
lclavicle -4.31363e-014 -5.56597e-014
lhumerus -50.6275 -3.37275 84.6304
lradius 52.1235
lwrist -4.73607
lhand -31.3433 30.2789
lfingers 7.12502
lthumb -4.61462 60.2087
rfemur -41.7541 4.36455 30.3267
rtibia 45.4428
rfoot -34.0441 -12.1407
rtoes -12.425
lfemur -55.3654 -21.5066 -16.9302
ltibia 58.2894
lfoot -14.2181 -23.7887
ltoes -14.8688
